{"asset":{"version":"2.0","generator":"Blockbench 5.0.7 glTF exporter"},"scenes":[{"nodes":[1],"name":"blockbench_export"}],"scene":0,"nodes":[{"name":"group"},{"translation":[2.135044278125301e-18,1.5625,0],"name":"group","mesh":0,"children":[0],"skin":0}],"bufferViews":[{"buffer":0,"byteOffset":0,"byteLength":6816,"target":34962,"byteStride":12},{"buffer":0,"byteOffset":6816,"byteLength":6816,"target":34962,"byteStride":12},{"buffer":0,"byteOffset":13632,"byteLength":4544,"target":34962,"byteStride":8},{"buffer":0,"byteOffset":18176,"byteLength":4544,"target":34962,"byteStride":8},{"buffer":0,"byteOffset":22720,"byteLength":9088,"target":34962,"byteStride":16},{"buffer":0,"byteOffset":31808,"byteLength":288,"target":34963},{"buffer":0,"byteOffset":32096,"byteLength":288,"target":34963},{"buffer":0,"byteOffset":32384,"byteLength":768,"target":34963},{"buffer":0,"byteOffset":33152,"byteLength":64},{"buffer":0,"byteOffset":33216,"byteLength":16},{"buffer":0,"byteOffset":33232,"byteLength":64}],"buffers":[{"byteLength":33296,"uri":"data:application/octet-stream;base64,"}],"accessors":[{"bufferView":0,"componentType":5126,"count":568,"max":[1,0.375,0.375],"min":[-1,-3.125,-0.375],"type":"VEC3"},{"bufferView":1,"componentType":5126,"count":568,"max":[1,1,1],"min":[-1,-1,-1],"type":"VEC3"},{"bufferView":2,"componentType":5126,"count":568,"max":[0.70703125,0.8262311220169067],"min":[0,0],"type":"VEC2"},{"bufferView":3,"componentType":5123,"count":568,"max":[0,0,0,0],"min":[0,0,0,0],"type":"VEC4"},{"bufferView":4,"componentType":5126,"count":568,"max":[0,1,0,0],"min":[0,1,0,0],"type":"VEC4"},{"bufferView":5,"componentType":5123,"count":144,"max":[143],"min":[0],"type":"SCALAR"},{"bufferView":6,"componentType":5123,"count":144,"max":[287],"min":[144],"type":"SCALAR"},{"bufferView":7,"componentType":5123,"count":384,"max":[567],"min":[288],"type":"SCALAR"},{"bufferView":8,"componentType":5126,"count":1,"max":[1,0,0,0,0,1,0,0,0,0,1,0,0,0,0,1],"min":[1,0,0,0,0,1,0,0,0,0,1,0,0,0,0,1],"type":"MAT4"},{"bufferView":9,"componentType":5126,"count":4,"max":[0.7916666865348816],"min":[0],"type":"SCALAR"},{"bufferView":10,"componentType":5126,"count":4,"max":[0.8732057809829712,0,0,1],"min":[-0.04361938685178757,0,0,-0.9990482330322266],"type":"VEC4"}],"materials":[{"pbrMetallicRoughness":{"metallicFactor":0,"roughnessFactor":1,"baseColorTexture":{"index":0}},"alphaMode":"MASK","alphaCutoff":0.05,"doubleSided":true},{"pbrMetallicRoughness":{"metallicFactor":0,"roughnessFactor":1,"baseColorTexture":{"index":1}},"alphaMode":"MASK","alphaCutoff":0.05,"doubleSided":true},{"pbrMetallicRoughness":{"metallicFactor":0,"roughnessFactor":1,"baseColorTexture":{"index":2}},"alphaMode":"MASK","alphaCutoff":0.05,"doubleSided":true}],"textures":[{"sampler":0,"source":0,"name":"texture"},{"sampler":1,"source":1,"name":"texture"},{"sampler":2,"source":2,"name":"texture"}],"samplers":[{"magFilter":9728,"minFilter":9728,"wrapS":33071,"wrapT":33071},{"magFilter":9728,"minFilter":9728,"wrapS":33071,"wrapT":33071},{"magFilter":9728,"minFilter":9728,"wrapS":33071,"wrapT":33071}],"images":[{"mimeType":"image/png","uri":"data:image/png;base64,"},{"mimeType":"image/png","uri":"data:image/png;base64,"},{"mimeType":"image/png","uri":"data:image/png;base64,"}],"meshes":[{"primitives":[{"mode":4,"attributes":{"POSITION":0,"NORMAL":1,"TEXCOORD_0":2,"JOINTS_0":3,"WEIGHTS_0":4},"indices":5,"material":0},{"mode":4,"attributes":{"POSITION":0,"NORMAL":1,"TEXCOORD_0":2,"JOINTS_0":3,"WEIGHTS_0":4},"indices":6,"material":1},{"mode":4,"attributes":{"POSITION":0,"NORMAL":1,"TEXCOORD_0":2,"JOINTS_0":3,"WEIGHTS_0":4},"indices":7,"material":2}]}],"skins":[{"inverseBindMatrices":8,"joints":[0],"skeleton":0}],"animations":[{"name":"walk","samplers":[{"input":9,"output":10,"interpolation":"LINEAR"}],"channels":[{"sampler":0,"target":{"node":0,"path":"rotation"}}]}]}