{"asset":{"version":"2.0","generator":"Blockbench 5.0.7 glTF exporter"},"scenes":[{"nodes":[11],"name":"blockbench_export"}],"scene":0,"nodes":[{"translation":[0,0.25,0],"name":"HEAD"},{"translation":[-0.09375,-0.5,-0.125],"name":"R_ELBOW"},{"translation":[-0.1875,0.1875,0],"name":"R_LIMB","children":[1]},{"translation":[0.09375,-0.5,-0.125],"name":"L_ELBOW"},{"translation":[0.1875,0.1875,0],"name":"L_LIMB","children":[3]},{"translation":[0,0.25,0],"name":"WAIST","children":[0,2,4]},{"translation":[0,-0.5,0.125],"name":"L_KNEE"},{"translation":[0.09375,0,0],"name":"L_LEG","children":[6]},{"translation":[0,-0.5,0.125],"name":"R_KNEE"},{"translation":[-0.09375,0,0],"name":"R_LEG","children":[8]},{"name":"ROOT","children":[5,7,9]},{"translation":[0,1,0],"name":"ROOT","mesh":0,"children":[10],"skin":0}],"bufferViews":[{"buffer":0,"byteOffset":0,"byteLength":3168,"target":34962,"byteStride":12},{"buffer":0,"byteOffset":3168,"byteLength":3168,"target":34962,"byteStride":12},{"buffer":0,"byteOffset":6336,"byteLength":2112,"target":34962,"byteStride":8},{"buffer":0,"byteOffset":8448,"byteLength":2112,"target":34962,"byteStride":8},{"buffer":0,"byteOffset":10560,"byteLength":4224,"target":34962,"byteStride":16},{"buffer":0,"byteOffset":14784,"byteLength":792,"target":34963},{"buffer":0,"byteOffset":15576,"byteLength":704},{"buffer":0,"byteOffset":16280,"byteLength":12},{"buffer":0,"byteOffset":16292,"byteLength":48},{"buffer":0,"byteOffset":16340,"byteLength":20},{"buffer":0,"byteOffset":16360,"byteLength":60},{"buffer":0,"byteOffset":16420,"byteLength":12},{"buffer":0,"byteOffset":16432,"byteLength":48},{"buffer":0,"byteOffset":16480,"byteLength":12},{"buffer":0,"byteOffset":16492,"byteLength":48},{"buffer":0,"byteOffset":16540,"byteLength":12},{"buffer":0,"byteOffset":16552,"byteLength":48},{"buffer":0,"byteOffset":16600,"byteLength":12},{"buffer":0,"byteOffset":16612,"byteLength":48},{"buffer":0,"byteOffset":16660,"byteLength":12},{"buffer":0,"byteOffset":16672,"byteLength":48},{"buffer":0,"byteOffset":16720,"byteLength":12},{"buffer":0,"byteOffset":16732,"byteLength":48},{"buffer":0,"byteOffset":16780,"byteLength":12},{"buffer":0,"byteOffset":16792,"byteLength":48},{"buffer":0,"byteOffset":16840,"byteLength":12},{"buffer":0,"byteOffset":16852,"byteLength":48},{"buffer":0,"byteOffset":16900,"byteLength":12},{"buffer":0,"byteOffset":16912,"byteLength":48},{"buffer":0,"byteOffset":16960,"byteLength":12},{"buffer":0,"byteOffset":16972,"byteLength":48}],"buffers":[{"byteLength":17020,"uri":"data:application/octet-stream;base64,"}],"accessors":[{"bufferView":0,"componentType":5126,"count":264,"max":[0.375,1.0625,0.25],"min":[-0.375,-1,-0.25],"type":"VEC3"},{"bufferView":1,"componentType":5126,"count":264,"max":[1,1,1],"min":[-1,-1,-1],"type":"VEC3"},{"bufferView":2,"componentType":5126,"count":264,"max":[0.65625,0.6875],"min":[0,0],"type":"VEC2"},{"bufferView":3,"componentType":5123,"count":264,"max":[0,10,0,0],"min":[0,0,0,0],"type":"VEC4"},{"bufferView":4,"componentType":5126,"count":264,"max":[0,1,0,0],"min":[0,1,0,0],"type":"VEC4"},{"bufferView":5,"componentType":5123,"count":396,"max":[263],"min":[0],"type":"SCALAR"},{"bufferView":6,"componentType":5126,"count":11,"max":[1,0,0,0,0,1,0,0,0,0,1,0,0.28125,0.5,0.125,1],"min":[1,0,0,0,0,1,0,0,0,0,1,0,-0.28125,-0.5,-0.125,1],"type":"MAT4"},{"bufferView":7,"componentType":5126,"count":3,"max":[1],"min":[0],"type":"SCALAR"},{"bufferView":8,"componentType":5126,"count":3,"max":[0,0.19509032368659973,0,0.9807852506637573],"min":[0,-0.19509032368659973,0,0.9807852506637573],"type":"VEC4"},{"bufferView":9,"componentType":5126,"count":5,"max":[1],"min":[0],"type":"SCALAR"},{"bufferView":10,"componentType":5126,"count":5,"max":[0,1,0],"min":[0,0.875,0],"type":"VEC3"},{"bufferView":11,"componentType":5126,"count":3,"max":[1],"min":[0],"type":"SCALAR"},{"bufferView":12,"componentType":5126,"count":3,"max":[0.17681187391281128,0.4144977629184723,0.08244873583316803,0.8888933658599854],"min":[0.17681187391281128,-0.4144977629184723,-0.08244873583316803,0.8888933658599854],"type":"VEC4"},{"bufferView":13,"componentType":5126,"count":3,"max":[1],"min":[0],"type":"SCALAR"},{"bufferView":14,"componentType":5126,"count":3,"max":[0.379409521818161,0.12059047818183899,-0.049950212240219116,0.9159756302833557],"min":[-0.379409521818161,-0.12059047818183899,-0.049950212240219116,0.9159756302833557],"type":"VEC4"},{"bufferView":15,"componentType":5126,"count":3,"max":[1],"min":[0],"type":"SCALAR"},{"bufferView":16,"componentType":5126,"count":3,"max":[0.379409521818161,0.12059047818183899,0.049950212240219116,0.9159756302833557],"min":[-0.379409521818161,-0.12059047818183899,0.049950212240219116,0.9159756302833557],"type":"VEC4"},{"bufferView":17,"componentType":5126,"count":3,"max":[1],"min":[0],"type":"SCALAR"},{"bufferView":18,"componentType":5126,"count":3,"max":[0.19509032368659973,0,0,0.9807852506637573],"min":[-0.19509032368659973,0,0,0.9807852506637573],"type":"VEC4"},{"bufferView":19,"componentType":5126,"count":3,"max":[1],"min":[0],"type":"SCALAR"},{"bufferView":20,"componentType":5126,"count":3,"max":[0.19509032368659973,0,0,0.9807852506637573],"min":[-0.19509032368659973,0,0,0.9807852506637573],"type":"VEC4"},{"bufferView":21,"componentType":5126,"count":3,"max":[1],"min":[0],"type":"SCALAR"},{"bufferView":22,"componentType":5126,"count":3,"max":[-0.19134171307086945,0.19134171307086945,0.03806023299694061,0.9619397521018982],"min":[-0.19134171307086945,-0.19134171307086945,-0.03806023299694061,0.9619397521018982],"type":"VEC4"},{"bufferView":23,"componentType":5126,"count":3,"max":[1],"min":[0],"type":"SCALAR"},{"bufferView":24,"componentType":5126,"count":3,"max":[0.5555702447891235,0,0,1],"min":[0,0,0,0.8314695954322815],"type":"VEC4"},{"bufferView":25,"componentType":5126,"count":3,"max":[1],"min":[0],"type":"SCALAR"},{"bufferView":26,"componentType":5126,"count":3,"max":[0.5555702447891235,0,0,1],"min":[0,0,0,0.8314695954322815],"type":"VEC4"},{"bufferView":27,"componentType":5126,"count":3,"max":[1],"min":[0],"type":"SCALAR"},{"bufferView":28,"componentType":5126,"count":3,"max":[-0.19509032368659973,0,0,0.9807852506637573],"min":[-0.5555702447891235,0,0,0.8314695954322815],"type":"VEC4"},{"bufferView":29,"componentType":5126,"count":3,"max":[1],"min":[0],"type":"SCALAR"},{"bufferView":30,"componentType":5126,"count":3,"max":[-0.19509032368659973,0,0,0.9807852506637573],"min":[-0.3826834261417389,0,0,0.9238795042037964],"type":"VEC4"}],"materials":[{"pbrMetallicRoughness":{"metallicFactor":0,"roughnessFactor":1,"baseColorTexture":{"index":0}},"alphaMode":"MASK","alphaCutoff":0.05,"doubleSided":true}],"textures":[{"sampler":0,"source":0,"name":"texture"}],"samplers":[{"magFilter":9728,"minFilter":9728,"wrapS":33071,"wrapT":33071}],"images":[{"mimeType":"image/png","uri":"data:image/png;base64,"}],"meshes":[{"primitives":[{"mode":4,"attributes":{"POSITION":0,"NORMAL":1,"TEXCOORD_0":2,"JOINTS_0":3,"WEIGHTS_0":4},"indices":5,"material":0}]}],"skins":[{"inverseBindMatrices":6,"joints":[10,5,0,2,1,4,3,7,6,9,8],"skeleton":10}],"animations":[{"name":"walk","samplers":[{"input":7,"output":8,"interpolation":"LINEAR"},{"input":9,"output":10,"interpolation":"LINEAR"},{"input":11,"output":12,"interpolation":"LINEAR"},{"input":13,"output":14,"interpolation":"LINEAR"},{"input":15,"output":16,"interpolation":"LINEAR"},{"input":17,"output":18,"interpolation":"LINEAR"},{"input":19,"output":20,"interpolation":"LINEAR"},{"input":21,"output":22,"interpolation":"LINEAR"},{"input":23,"output":24,"interpolation":"LINEAR"},{"input":25,"output":26,"interpolation":"LINEAR"},{"input":27,"output":28,"interpolation":"LINEAR"},{"input":29,"output":30,"interpolation":"LINEAR"}],"channels":[{"sampler":0,"target":{"node":10,"path":"rotation"}},{"sampler":1,"target":{"node":10,"path":"translation"}},{"sampler":2,"target":{"node":5,"path":"rotation"}},{"sampler":3,"target":{"node":9,"path":"rotation"}},{"sampler":4,"target":{"node":7,"path":"rotation"}},{"sampler":5,"target":{"node":2,"path":"rotation"}},{"sampler":6,"target":{"node":4,"path":"rotation"}},{"sampler":7,"target":{"node":0,"path":"rotation"}},{"sampler":8,"target":{"node":6,"path":"rotation"}},{"sampler":9,"target":{"node":8,"path":"rotation"}},{"sampler":10,"target":{"node":3,"path":"rotation"}},{"sampler":11,"target":{"node":1,"path":"rotation"}}]}]}